<svg version="1.0" xmlns="http://www.w3.org/2000/svg" width="421.000000pt" height="421.000000pt"
  viewBox="0 0 421.000000 421.000000" preserveAspectRatio="xMidYMid meet">

  <style>
    path,
    rect,
    g {
      fill: #000;
    }

    @media (prefers-color-scheme: dark) {

      path,
      rect,
      g {
        fill: #fff;
      }
    }
  </style>
  <g transform="translate(0.000000,421.000000) scale(0.100000,-0.100000)" fill="currentColor" stroke="none">
    <path d="M620 2105 l0 -2096 923 3 c910 4 924 4 1047 27 290 53 518 162 694
334 191 187 306 483 306 790 0 511 -266 876 -722 991 l-89 23 63 23 c273 99
470 286 568 542 92 238 76 567 -38 811 -157 335 -418 530 -813 606 -196 38
-290 41 -1125 41 l-814 0 0 -2095z m1765 1598 c181 -42 292 -103 377 -207 107
-133 150 -261 151 -451 2 -403 -229 -617 -706 -655 -76 -6 -322 -10 -577 -8
l-445 3 -3 673 -2 673 557 -4 c519 -3 564 -5 648 -24z m147 -1825 c204 -56
346 -165 427 -329 52 -106 71 -194 71 -340 0 -218 -58 -367 -200 -510 -98
-100 -180 -145 -321 -179 -145 -34 -257 -40 -801 -40 l-528 0 0 716 0 715 628
-3 627 -4 97 -26z" />
  </g>
</svg>